<?xml version="1.0" standalone="no"?>
<!DOCTYPE svg PUBLIC "-//W3C//DTD SVG 20010904//EN"
 "http://www.w3.org/TR/2001/REC-SVG-20010904/DTD/svg10.dtd">
<svg version="1.0"
    xmlns="http://www.w3.org/2000/svg" width="300.000000pt" height="257.000000pt" viewBox="0 0 300.000000 257.000000" preserveAspectRatio="xMidYMid meet">
    <g transform="translate(0.000000,257.000000) scale(0.100000,-0.100000)" fill="#000000" stroke="none">
        <path d="M1522 2463 l3 -108 115 0 115 0 0 104 c0 61 -4 106 -10 108 -6 2 -10
-34 -10 -93 l0 -97 -80 -2 c-121 -2 -115 -8 -115 101 0 58 -4 94 -10 94 -7 0
-10 -38 -8 -107z"/>
        <path d="M957 2304 c-12 -13 -8 -189 5 -202 17 -17 212 -16 224 1 5 6 9 55 9
107 l-1 95 -115 3 c-63 1 -118 -1 -122 -4z m215 -31 c2 -10 4 -49 4 -88 l-1
-70 -98 -3 c-110 -4 -98 -15 -99 93 -1 92 -9 85 96 85 81 0 94 -2 98 -17z"/>
        <path d="M1242 2203 l3 -108 115 0 115 0 0 105 0 105 -118 3 -118 3 3 -108z
m215 0 l-3 -88 -84 -1 c-47 -1 -91 1 -97 3 -9 4 -13 31 -13 89 l0 84 100 0
100 0 -3 -87z"/>
        <path d="M1522 2203 l3 -108 95 -3 c148 -5 141 -10 138 111 l-3 102 -118 3
-118 3 3 -108z m209 73 c0 -6 2 -45 2 -86 l2 -75 -98 -2 -97 -3 0 91 0 90 95
-2 c62 -1 95 -5 96 -13z"/>
        <path d="M2240 2208 c-65 -112 -77 -243 -33 -335 l21 -42 -47 -18 c-42 -16
-110 -18 -855 -23 l-809 -5 -20 -27 c-19 -26 -20 -33 -9 -140 14 -145 42 -253
92 -354 119 -238 320 -335 702 -335 526 0 884 221 1093 675 l49 106 51 0 c100
1 212 63 266 147 40 64 35 82 -26 113 -43 21 -64 25 -148 25 -96 0 -98 0 -104
25 -9 37 -49 113 -76 146 -14 16 -45 44 -70 62 l-46 33 -31 -53z m116 -42 c36
-37 59 -72 74 -115 13 -34 27 -64 32 -67 5 -3 53 -7 106 -8 95 -1 154 -18 174
-49 7 -12 -11 -57 -24 -57 -4 0 -8 -6 -8 -14 0 -18 -66 -76 -85 -76 -8 0 -15
-4 -15 -9 0 -14 -50 -30 -125 -40 -79 -11 -83 -15 -125 -115 -59 -139 -172
-300 -278 -396 -37 -33 -71 -60 -77 -60 -5 0 -26 -14 -45 -30 -19 -17 -41 -28
-48 -25 -7 3 -11 1 -8 -4 9 -13 -175 -94 -243 -106 -46 -8 -65 -13 -106 -23
-91 -24 -256 -31 -419 -18 -55 5 -107 12 -115 16 -9 5 -42 14 -74 20 -89 18
-187 72 -243 134 -69 76 -68 74 -112 167 -82 171 -116 440 -60 470 23 13 1187
17 1206 5 7 -4 12 -4 12 1 0 4 30 7 67 6 38 -1 107 -2 156 -4 48 -1 90 1 94 5
3 3 22 6 42 6 35 0 92 16 119 33 16 11 15 36 -4 72 -22 42 -29 133 -14 196 16
66 56 139 78 139 9 0 39 -24 68 -54z"/>
        <path d="M682 1943 l3 -108 106 -3 c82 -2 109 1 118 12 8 9 11 46 9 107 l-3
94 -118 3 -118 3 3 -108z m210 65 c2 -13 4 -52 4 -87 l-1 -65 -95 0 -95 -1 -3
88 -3 87 94 0 c90 0 95 -1 99 -22z"/>
        <path d="M957 2044 c-13 -13 -8 -191 6 -201 16 -14 216 -14 224 0 3 5 6 53 7
106 l0 96 -115 3 c-63 1 -118 -1 -122 -4z m215 -36 c2 -13 2 -52 0 -88 l-3
-65 -90 1 c-50 1 -92 4 -95 7 -5 4 -7 66 -5 135 l1 32 94 0 c90 0 95 -1 98
-22z"/>
        <path d="M1242 1943 l3 -108 105 -1 c58 -1 111 1 118 4 9 3 12 30 10 106 l-3
101 -118 3 -118 3 3 -108z m213 -2 l0 -83 -84 -3 c-46 -2 -90 -1 -97 2 -10 4
-14 27 -14 89 l0 85 98 -3 97 -3 0 -84z"/>
        <path d="M1522 1943 l3 -108 106 -3 c83 -3 108 0 118 11 8 10 11 46 9 108 l-3
94 -118 3 -118 3 3 -108z m209 64 c3 -49 0 -140 -5 -144 -4 -4 -83 -6 -153 -4
l-33 1 0 84 c0 98 -6 93 111 88 73 -3 79 -5 80 -25z"/>
        <path d="M1802 1943 l3 -108 95 -2 c150 -3 140 -11 140 112 l0 105 -120 0
-121 0 3 -107z m189 88 l26 -1 -1 -86 -1 -87 -75 1 c-136 1 -121 -10 -119 85
1 45 3 84 4 87 2 3 34 4 72 3 37 -1 80 -2 94 -2z"/>
        <path d="M427 712 c-14 -15 -17 -41 -17 -135 l0 -116 -37 22 c-31 18 -53 22
-119 22 -72 0 -86 -3 -130 -30 -63 -39 -114 -113 -113 -164 l1 -36 9 34 c25
84 91 148 177 171 45 12 128 5 149 -12 7 -6 28 -11 48 -13 40 -4 35 -22 38
150 2 89 2 90 27 90 l25 0 3 -242 c3 -237 2 -242 -22 -297 -18 -40 -37 -64
-70 -88 -25 -17 -52 -33 -58 -34 -7 -1 -24 -7 -38 -13 -22 -10 -20 -11 18 -7
76 8 158 83 182 167 6 19 10 143 10 276 0 206 -2 244 -16 257 -21 21 -47 20
-67 -2z"/>
        <path d="M1617 712 c-15 -17 -17 -56 -17 -349 0 -294 2 -332 16 -344 19 -16
65 -13 76 5 4 6 8 51 8 101 0 88 1 90 28 106 l28 16 104 -119 c99 -111 113
-123 150 -118 15 1 40 27 40 42 0 4 -48 62 -106 128 -59 67 -105 122 -103 123
2 2 48 31 101 66 53 34 99 70 102 78 9 22 -20 63 -44 63 -11 0 -82 -40 -158
-90 l-137 -89 -5 190 c-4 154 -8 192 -20 199 -23 15 -45 12 -63 -8z m63 -203
c0 -104 3 -189 8 -190 4 0 15 -2 25 -4 10 -2 25 5 35 15 19 20 152 106 166
107 5 1 12 6 15 12 9 14 77 42 85 34 18 -19 -1 -43 -65 -83 -84 -53 -129 -88
-129 -101 0 -5 34 -48 75 -94 42 -47 74 -85 71 -85 -2 0 9 -13 25 -29 32 -33
37 -58 13 -68 -17 -6 -19 -5 -158 150 -43 48 -85 87 -93 87 -8 0 -28 -9 -44
-21 -29 -20 -29 -22 -29 -115 0 -75 -3 -96 -15 -100 -39 -15 -41 3 -40 342 0
317 1 327 20 334 11 4 23 6 28 3 4 -2 7 -89 7 -194z"/>
        <path d="M714 491 c-104 -47 -159 -137 -152 -251 3 -53 10 -78 34 -116 38 -62
112 -114 163 -114 35 0 35 1 -23 25 -70 28 -112 65 -137 120 -22 48 -25 142
-5 190 20 46 70 100 114 121 46 22 154 22 202 1 37 -16 89 -57 74 -57 -5 0 -1
-5 9 -11 46 -27 68 -140 42 -218 -27 -81 -87 -135 -178 -157 l-52 -12 42 -1
c55 -1 84 11 133 55 63 57 84 106 84 189 0 85 -22 134 -88 192 -72 64 -179 82
-262 44z"/>
        <path d="M1282 497 c-43 -13 -118 -80 -141 -126 -30 -58 -35 -121 -17 -185 28
-95 121 -177 198 -175 31 0 29 2 -20 18 -70 24 -122 70 -148 131 -20 48 -17
154 6 199 57 112 187 159 303 108 15 -6 27 -15 27 -19 0 -5 7 -8 15 -8 21 0
30 -27 15 -45 -10 -12 -16 -12 -46 2 -19 9 -34 20 -34 24 0 4 -31 7 -68 6 -58
-2 -74 -6 -106 -30 -68 -52 -89 -112 -66 -191 22 -78 87 -126 170 -126 43 0
100 18 100 31 0 16 50 10 57 -8 8 -21 -38 -62 -78 -70 -35 -7 -49 -23 -19 -23
23 0 76 24 103 48 23 20 22 55 -4 78 -20 18 -21 18 -69 -9 -90 -50 -190 -25
-230 58 -25 52 -25 88 0 139 27 55 63 79 126 84 45 4 61 0 100 -23 39 -23 50
-25 70 -16 29 13 33 60 6 84 -55 50 -169 70 -250 44z"/>
        <path d="M2205 486 c-93 -43 -148 -129 -148 -231 0 -33 7 -76 15 -96 34 -79
129 -154 186 -147 24 3 22 5 -16 17 -61 17 -127 81 -147 141 -18 55 -18 130 1
178 15 38 82 112 104 115 8 2 22 7 30 12 22 13 132 11 171 -5 40 -16 95 -64
115 -102 7 -14 17 -51 20 -81 l6 -54 -33 -6 c-19 -4 -95 -4 -169 -2 -194 7
-220 -2 -177 -66 32 -47 69 -71 121 -76 53 -6 132 13 140 33 8 20 43 17 51 -3
9 -24 -41 -65 -103 -86 -45 -15 -46 -16 -14 -16 38 -1 98 27 126 58 16 17 18
27 10 49 -12 36 -48 40 -87 11 -37 -27 -115 -37 -157 -19 -30 13 -90 72 -90
90 0 6 76 10 195 10 186 0 195 1 205 21 14 26 -2 109 -30 153 -69 113 -208
157 -325 102z"/>
        <path d="M2626 488 c-22 -31 -24 -434 -2 -463 16 -22 43 -28 67 -14 15 8 18
28 21 153 3 160 9 177 79 224 30 21 44 23 114 20 79 -3 79 -3 89 25 15 41 -15
67 -86 74 -72 7 -117 -2 -162 -32 -32 -22 -36 -22 -36 -7 0 44 -58 57 -84 20z
m69 -26 l15 -21 48 21 c45 19 143 28 185 17 26 -8 40 -26 34 -43 -5 -12 -19
-14 -74 -9 -54 4 -76 2 -104 -12 -92 -47 -109 -86 -109 -255 0 -95 -3 -130
-13 -139 -11 -8 -18 -7 -29 7 -14 14 -16 49 -14 227 1 116 5 216 9 222 10 17
35 10 52 -15z"/>
        <path d="M165 407 c-83 -47 -109 -155 -60 -246 62 -114 247 -107 304 12 47 96
10 203 -82 242 -52 22 -115 19 -162 -8z m182 -25 c91 -65 79 -218 -21 -266
-110 -52 -226 19 -226 139 0 59 25 106 72 136 44 27 131 23 175 -9z"/>
        <path d="M732 413 c-65 -32 -104 -109 -93 -183 7 -41 58 -136 68 -126 3 2 20
-2 38 -10 176 -73 322 139 196 284 -43 50 -145 67 -209 35z m154 -19 c44 -21
84 -88 84 -139 0 -51 -40 -118 -84 -139 -107 -51 -229 23 -229 139 0 116 122
190 229 139z"/>
        <path d="M2235 414 c-40 -21 -64 -43 -82 -77 -26 -51 -10 -57 157 -57 156 0
178 6 163 46 -31 82 -159 130 -238 88z m155 -26 c18 -13 44 -38 58 -55 l25
-33 -157 0 c-86 0 -156 4 -156 9 0 15 43 63 74 82 44 27 114 25 156 -3z"/>
        <path d="M1011 224 c0 -11 3 -14 6 -6 3 7 2 16 -1 19 -3 4 -6 -2 -5 -13z"/>
        <path d="M11 194 c-2 -76 112 -185 193 -183 l41 0 -53 17 c-83 27 -133 77
-169 167 l-11 30 -1 -31z"/>
        <path d="M2793 54 c-8 -22 10 -49 32 -49 22 0 40 27 32 49 -8 21 -56 21 -64 0z
m55 -17 c4 -20 -25 -34 -40 -19 -15 15 -1 44 19 40 10 -2 19 -11 21 -21z"/>
        <path d="M2810 35 c0 -6 7 -12 15 -12 8 0 15 6 15 12 0 6 -7 12 -15 12 -8 0
-15 -6 -15 -12z"/>
    </g>
</svg>
